# Rhino

o object_1
v 0.13914399999999999 -0.197156 0.101608
v -0.085379999999999998 0.26287300000000002 0.101608
v 0.042900000000000001 0.22007699999999999 0.13369900000000001
v -0.80000000000000004 -0.16503300000000001 0.19790099999999999
v -0.80000000000000004 -0.16503300000000001 -0.0053090000000000004
v 0.28999999999999998 0.059568000000000003 -0.0053489999999999996
v -0.80000000000000004 0.177282 -0.0053090000000000004
v -0.80000000000000004 0.177282 0.19790099999999999
v 0.149868 -0.036595000000000003 0.16578999999999999
v -0.085379999999999998 -0.261349 -0.0053090000000000004
v -0.085379999999999998 0.26287300000000002 -0.0053090000000000004
v 0.28999999999999998 0.059568000000000003 0.133719
v 0.29006700000000002 -0.068717 -0.0053090000000000004
v -0.18162400000000001 0.177282 0.19790099999999999
v -0.18162400000000001 -0.16503300000000001 0.19790099999999999
v -0.11748400000000001 -0.261349 0.101608
v 0.13914399999999999 0.19867899999999999 0.016077999999999999
v 0.29006700000000002 -0.068717 0.13369900000000001
v 0.128555 -0.20782900000000001 0.0053740000000000003
v 0.096383999999999997 -0.18643100000000001 0.144402
v 0.11776399999999999 0.20935300000000001 0.11231099999999999
v 0.096383999999999997 0.123761 0.16578999999999999
v 0.064280000000000004 -0.22922699999999999 0.11231099999999999
v -0.10675999999999999 0.26287300000000002 -0.0053090000000000004
v 0.064280000000000004 0.23075100000000001 0.0053740000000000003
v 0.096383999999999997 -0.122186 0.16578999999999999
v 0.128555 0.16655700000000001 0.144402
v 0.053557 -0.218553 0.13369900000000001
v -0.11748400000000001 -0.261349 -0.0053090000000000004
v 0.149868 0.038170000000000003 0.16578999999999999
v -0.10675999999999999 0.26287300000000002 0.101608
v 0.075070999999999999 -0.22922699999999999 0.0053740000000000003
v -0.085379999999999998 -0.261349 0.101608
v 0.064280000000000004 0.23075100000000001 0.101608
v 0.160658 0.177282 0.11231099999999999
v 0.128555 -0.18643100000000001 0.13369900000000001
v 0.096383999999999997 0.22007699999999999 0.0053740000000000003
v 0.128555 0.18795500000000001 0.13369900000000001
v 0.064280000000000004 0.19867899999999999 0.144402
v 0.128555 -0.090115000000000001 0.16578999999999999
v 0.128555 0.091689999999999994 0.16578999999999999
v 0.075070999999999999 -0.22922699999999999 0.080259999999999998
v 0.096383999999999997 -0.218553 0.11231099999999999
v 0.149868 0.18795500000000001 0.0053740000000000003
v 0.128555 -0.16503300000000001 0.144402
v 0.075070999999999999 0.22007699999999999 0.123015
v 0.149868 -0.18643100000000001 0.11231099999999999
v 0.279277 0.070291999999999993 -0.0053090000000000004
v 0.096383999999999997 0.15588399999999999 0.15510599999999999
v 0.13914399999999999 0.19867899999999999 0.080259999999999998
v 0.08566 0.20935300000000001 0.13369900000000001
v 0.096383999999999997 0.22007699999999999 0.101608
v 0.128555 -0.20782900000000001 0.026782
v 0.064280000000000004 -0.197156 0.144402
v 0.279277 0.070291999999999993 0.13369900000000001
v 0.08566 -0.20782900000000001 0.13369900000000001
v 0.13914399999999999 -0.068717 0.16578999999999999
v 0.13914399999999999 0.070291999999999993 0.16578999999999999
v 0.053557 0.23075100000000001 0.11231099999999999
v 0.11776399999999999 0.20935300000000001 0.0053740000000000003
vn 0.56014502048492432 -0.81665807962417603 0.13894996047019958
vn 0.099932722747325897 0.9411320686340332 0.32293012738227844
vn 0.14527818560600281 0.72782880067825317 0.67019361257553101
vn -0.55642551183700562 -0.44134989380836487 0.70398932695388794
vn -0.41383761167526245 -0.64055132865905762 -0.64686352014541626
vn 0.31895837187767029 0.19449217617511749 -0.92759817838668823
vn -0.68899703025817871 0.3222072422504425 -0.64920377731323242
vn -0.28502526879310608 0.79659968614578247 0.53309428691864014
vn 0.15984658896923065 -0.017737109214067459 0.98698252439498901
vn 0.079346925020217896 -0.66189861297607422 -0.74538201093673706
vn 0.10540244728326797 0.51567584276199341 -0.85027569532394409
vn 0.62788927555084229 0.27503177523612976 0.72808831930160522
vn 0.78188508749008179 -0.26822212338447571 -0.56277221441268921
vn 0.095940858125686646 0.25473043322563171 0.96224099397659302
vn 0.087934046983718872 -0.33948266506195068 0.93649297952651978
vn -0.050050333142280579 -0.96609139442443848 0.25330287218093872
vn 0.57771521806716919 0.81435364484786987 -0.055436789989471436
vn 0.56675589084625244 -0.50125956535339355 0.65385520458221436
vn 0.46487626433372498 -0.79325717687606812 -0.39323419332504272
vn 0.20025539398193359 -0.43401047587394714 0.87836933135986328
vn 0.44201821088790894 0.83391934633255005 0.33045187592506409
vn 0.20521572232246399 0.25261285901069641 0.94555449485778809
vn 0.23985661566257477 -0.91970318555831909 0.3108292818069458
vn -0.054882466793060303 0.89241909980773926 -0.44785723090171814
vn 0.24916376173496246 0.94024229049682617 -0.23208154737949371
vn 0.19010831415653229 -0.25333178043365479 0.94851559400558472
vn 0.23720897734165192 0.36394277215003967 0.90070945024490356
vn 0.1739751398563385 -0.68155097961425781 0.71078890562057495
vn -0.049466736614704132 -0.70454347133636475 -0.7079346776008606
vn 0.16124582290649414 0.02710823155939579 0.98654192686080933
vn -0.04342217743396759 0.97092229127883911 0.23542380332946777
vn 0.25745537877082825 -0.9270898699760437 -0.27243542671203613
vn 0.12029110640287399 -0.94438821077346802 0.30604085326194763
vn 0.27757588028907776 0.9510570764541626 0.13580144941806793
vn 0.66490632295608521 0.7418251633644104 0.087149463593959808
vn 0.3771880567073822 -0.61613559722900391 0.69145220518112183
vn 0.3725963830947876 0.8778836727142334 -0.30081921815872192
vn 0.38392379879951477 0.59809213876724243 0.703482985496521
vn 0.17711785435676575 0.450540691614151 0.87500989437103271
vn 0.16936720907688141 -0.12867769598960876 0.97711658477783203
vn 0.17741644382476807 0.13553623855113983 0.9747580885887146
vn 0.3114476203918457 -0.94960445165634155 0.03538006916642189
vn 0.38929581642150879 -0.85755050182342529 0.33623793721199036
vn 0.600852370262146 0.72523844242095947 -0.33616310358047485
vn 0.25950169563293457 -0.36419698596000671 0.89443802833557129
vn 0.26831495761871338 0.86753362417221069 0.41879883408546448
vn 0.52563005685806274 -0.76945239305496216 0.36284446716308594
vn 0.44203349947929382 0.51154232025146484 -0.73683840036392212
vn 0.18154864013195038 0.33559086918830872 0.92434781789779663
vn 0.53354406356811523 0.845348060131073 0.026783481240272522
vn 0.25654911994934082 0.68236076831817627 0.68451905250549316
vn 0.36789923906326294 0.92181897163391113 0.12206507474184036
vn 0.51157695055007935 -0.85891902446746826 0.023392308503389359
vn 0.14445960521697998 -0.47386813163757324 0.86866587400436401
vn 0.48413509130477905 0.55189543962478638 0.67898792028427124
vn 0.27419385313987732 -0.65998291969299316 0.69945716857910156
vn 0.16059136390686035 -0.066652469336986542 0.98476791381835938
vn 0.1644846647977829 0.068330660462379456 0.98401004076004028
vn 0.21007545292377472 0.89955896139144897 0.38296467065811157
vn 0.33333006501197815 0.57485091686248779 -0.74728673696517944
f 44//44 48//48 60//60
f 5//5 4//4 7//7
f 6//6 5//5 7//7
f 7//7 4//4 8//8
f 10//10 6//6 13//13
f 6//6 12//12 13//13
f 3//3 2//2 14//14
f 2//2 8//8 14//14
f 8//8 4//4 14//14
f 14//14 4//4 15//15
f 9//9 14//14 15//15
f 4//4 5//5 16//16
f 15//15 4//4 16//16
f 12//12 9//9 18//18
f 13//13 12//12 18//18
f 10//10 13//13 19//19
f 13//13 18//18 19//19
f 6//6 7//7 24//24
f 7//7 8//8 24//24
f 2//2 11//11 24//24
f 11//11 6//6 24//24
f 11//11 2//2 25//25
f 15//15 20//20 26//26
f 5//5 6//6 29//29
f 6//6 10//10 29//29
f 16//16 5//5 29//29
f 10//10 16//16 29//29
f 9//9 12//12 30//30
f 14//14 9//9 30//30
f 8//8 2//2 31//31
f 2//2 24//24 31//31
f 24//24 8//8 31//31
f 10//10 19//19 32//32
f 16//16 10//10 33//33
f 15//15 16//16 33//33
f 28//28 15//15 33//33
f 23//23 28//28 33//33
f 10//10 32//32 33//33
f 25//25 2//2 34//34
f 12//12 6//6 35//35
f 11//11 25//25 37//37
f 25//25 34//34 37//37
f 35//35 21//21 38//38
f 3//3 14//14 39//39
f 27//27 38//38 39//39
f 15//15 26//26 40//40
f 26//26 18//18 40//40
f 12//12 22//22 41//41
f 22//22 14//14 41//41
f 32//32 19//19 42//42
f 23//23 33//33 42//42
f 33//33 32//32 42//42
f 28//28 23//23 43//43
f 23//23 42//42 43//43
f 17//17 35//35 44//44
f 18//18 26//26 45//45
f 26//26 20//20 45//45
f 36//36 18//18 45//45
f 20//20 36//36 45//45
f 1//1 18//18 47//47
f 18//18 36//36 47//47
f 43//43 1//1 47//47
f 36//36 43//43 47//47
f 6//6 11//11 48//48
f 35//35 6//6 48//48
f 44//44 35//35 48//48
f 14//14 22//22 49//49
f 22//22 27//27 49//49
f 39//39 14//14 49//49
f 27//27 39//39 49//49
f 35//35 17//17 50//50
f 21//21 35//35 50//50
f 17//17 37//37 50//50
f 38//38 21//21 51//51
f 3//3 39//39 51//51
f 39//39 38//38 51//51
f 46//46 3//3 51//51
f 21//21 46//46 51//51
f 37//37 34//34 52//52
f 34//34 46//46 52//52
f 46//46 21//21 52//52
f 21//21 50//50 52//52
f 50//50 37//37 52//52
f 18//18 1//1 53//53
f 19//19 18//18 53//53
f 42//42 19//19 53//53
f 1//1 43//43 53//53
f 43//43 42//42 53//53
f 20//20 15//15 54//54
f 15//15 28//28 54//54
f 28//28 20//20 54//54
f 22//22 12//12 55//55
f 27//27 22//22 55//55
f 12//12 35//35 55//55
f 38//38 27//27 55//55
f 35//35 38//38 55//55
f 20//20 28//28 56//56
f 36//36 20//20 56//56
f 28//28 43//43 56//56
f 43//43 36//36 56//56
f 9//9 15//15 57//57
f 18//18 9//9 57//57
f 15//15 40//40 57//57
f 40//40 18//18 57//57
f 30//30 12//12 58//58
f 14//14 30//30 58//58
f 12//12 41//41 58//58
f 41//41 14//14 58//58
f 2//2 3//3 59//59
f 34//34 2//2 59//59
f 3//3 46//46 59//59
f 46//46 34//34 59//59
f 11//11 37//37 60//60
f 37//37 17//17 60//60
f 17//17 44//44 60//60
f 48//48 11//11 60//60
