# Rhino

o object_1
v 0.24556712806224823 0.36861217021942139 0.43933427333831787
v 0.24556712806224823 0.21861216425895691 0.43933427333831787
v -0.26199287176132202 0.36861217021942139 0.43933427333831787
v -0.26199287176132202 0.21861216425895691 0.43933427333831787
v -0.26199287176132202 0.36861217021942139 0.43933427333831787
v -0.26199287176132202 0.21861216425895691 0.43933427333831787
v -0.26199287176132202 0.36861217021942139 0.13999705016613007
v -0.26199287176132202 0.21861216425895691 0.13999705016613007
v -0.26199287176132202 0.36861217021942139 0.13999705016613007
v -0.26199287176132202 0.21861216425895691 0.13999705016613007
v 0.35260021686553955 0.36861217021942139 0.13999705016613007
v 0.35260021686553955 0.21861216425895691 0.13999705016613007
v 0.35260021686553955 0.36861217021942139 0.13999705016613007
v 0.35260021686553955 0.21861216425895691 0.13999705016613007
v 0.24556712806224823 0.36861217021942139 0.43933427333831787
v 0.24556712806224823 0.21861216425895691 0.43933427333831787
v -0.26199287176132202 0.36861217021942139 0.13999705016613007
v -0.26199287176132202 0.36861217021942139 0.43933427333831787
v 0.35260021686553955 0.36861217021942139 0.13999705016613007
v 0.24556712806224823 0.36861217021942139 0.43933427333831787
v -0.26199287176132202 0.21861216425895691 0.13999705016613007
v -0.26199287176132202 0.21861216425895691 0.43933427333831787
v 0.35260021686553955 0.21861216425895691 0.13999705016613007
v 0.24556712806224823 0.21861216425895691 0.43933427333831787
vt 0.79310739040374756 0
vt 0.65467172861099243 0
vt 0.79310739040374756 0.59477424621582031
vt 0.65467172861099243 0.59477424621582031
vt 0 0
vt 0 0.13843570649623871
vt 0.32733586430549622 0
vt 0.32733586430549622 0.13843570649623871
vt 0.93300795555114746 0
vt 0.79457223415374756 0
vt 0.93300795555114746 0.7201988697052002
vt 0.79457223415374756 0.7201988697052002
vt 0 0.13990055024623871
vt 0 0.27833625674247742
vt 0.3505425751209259 0.13990055024623871
vt 0.3505425751209259 0.27833625674247742
vt 0.65320688486099243 0.27980110049247742
vt 0.32733586430549622 0.27980110049247742
vt 0.65320688486099243 0.99853515625
vt 0.32733586430549622 0.87336564064025879
vt 0.32587102055549622 0.27980110049247742
vt 0 0.27980110049247742
vt 0.32587102055549622 0.99853515625
vt 0 0.87336564064025879
vn 0 0 1
vn 0 0 1
vn 0 0 1
vn 0 0 1
vn -1 0 0
vn -1 0 0
vn -1 0 0
vn -1 0 0
vn 0 0 -1
vn 0 0 -1
vn 0 0 -1
vn 0 0 -1
vn 0.94161534309387207 0 0.3366905152797699
vn 0.94161534309387207 0 0.3366905152797699
vn 0.94161534309387207 0 0.3366905152797699
vn 0.94161534309387207 0 0.3366905152797699
vn 0 1 0
vn 0 1 0
vn 0 1 0
vn 0 1 0
vn 0 -1 0
vn 0 -1 0
vn 0 -1 0
vn 0 -1 0
f 2/2/2 1/1/1 3/3/3
f 6/6/6 5/5/5 7/7/7
f 10/10/10 9/9/9 11/11/11
f 14/14/14 13/13/13 15/15/15
f 20/20/20 19/19/19 17/17/17
f 24/24/24 22/22/22 21/21/21
f 2/2/2 3/3/3 4/4/4
f 6/6/6 7/7/7 8/8/8
f 10/10/10 11/11/11 12/12/12
f 14/14/14 15/15/15 16/16/16
f 20/20/20 17/17/17 18/18/18
f 24/24/24 21/21/21 23/23/23
o object_2
v -0.37499979138374329 -0.12780050933361053 0.28753906488418579
v -0.19499979913234711 -0.14920184016227722 0.41994926333427429
v -0.37499979138374329 -0.12780050933361053 -0.10477366298437119
v -0.19499979913234711 -0.14920184016227722 -0.10477366298437119
v -0.19499979913234711 -0.14920184016227722 -0.10477366298437119
v -0.19499979913234711 -0.14920184016227722 0.41994926333427429
v -0.19499979913234711 0.2129485160112381 -0.10477366298437119
v -0.19499979913234711 0.2129485160112381 0.41994926333427429
v -0.19499979913234711 0.2129485160112381 0.41994926333427429
v -0.37499979138374329 0.19221273064613342 0.28753906488418579
v -0.19499979913234711 0.2129485160112381 -0.10477366298437119
v -0.37499979138374329 0.19221273064613342 -0.10477366298437119
v -0.37499979138374329 0.19221273064613342 -0.10477366298437119
v -0.37499979138374329 0.19221273064613342 0.28753906488418579
v -0.37499979138374329 -0.12780050933361053 -0.10477366298437119
v -0.37499979138374329 -0.12780050933361053 0.28753906488418579
v -0.37499979138374329 0.19221273064613342 -0.10477366298437119
v -0.19499979913234711 0.2129485160112381 -0.10477366298437119
v -0.37499979138374329 -0.12780050933361053 -0.10477366298437119
v -0.19499979913234711 -0.14920184016227722 -0.10477366298437119
v -0.37499979138374329 0.19221273064613342 0.28753906488418579
v -0.19499979913234711 0.2129485160112381 0.41994926333427429
v -0.37499979138374329 -0.12780050933361053 0.28753906488418579
v -0.19499979913234711 -0.14920184016227722 0.41994926333427429
vt 0.96898853778839111 0
vt 0.70618903636932373 0
vt 0.96898853778839111 0.5
vt 0.70618903636932373 0.5
vt 0.35309451818466187 0.5
vt 0.35309451818466187 0.99853515625
vt 0.70472419261932373 0.5
vt 0.70472419261932373 0.99853515625
vt 0.64172869920730591 0
vt 0.37753793597221375 0
vt 0.64172869920730591 0.49853515625
vt 0.37753793597221375 0.49853515625
vt 0 0
vt 0 0.34412166476249695
vt 0.30348911881446838 0
vt 0.30348911881446838 0.34412166476249695
vt 0 0.5
vt 0 0.71339535713195801
vt 0.35162967443466187 0.5
vt 0.35162967443466187 0.71339535713195801
vt 0 0.72337591648101807
vt 0 0.98764026165008545
vt 0.35162967443466187 0.72337591648101807
vt 0.35162967443466187 0.98764026165008545
vn -0.11806471645832062 -0.99300593137741089 0
vn -0.11806471645832062 -0.99300593137741089 0
vn -0.11806471645832062 -0.99300593137741089 0
vn -0.11806471645832062 -0.99300593137741089 0
vn 1 0 0
vn 1 0 0
vn 1 0 0
vn 1 0 0
vn -0.11444194614887238 0.99342995882034302 0
vn -0.11444194614887238 0.99342995882034302 0
vn -0.11444194614887238 0.99342995882034302 0
vn -0.11444194614887238 0.99342995882034302 0
vn -1 0 0
vn -1 0 0
vn -1 0 0
vn -1 0 0
vn 0 0 -1
vn 0 0 -1
vn 0 0 -1
vn 0 0 -1
vn -0.59255677461624146 0 0.80552870035171509
vn -0.59255677461624146 0 0.80552870035171509
vn -0.59255677461624146 0 0.80552870035171509
vn -0.59255677461624146 0 0.80552870035171509
f 26/26/26 25/25/25 28/28/28
f 30/30/30 29/29/29 31/31/31
f 34/34/34 33/33/33 35/35/35
f 38/38/38 37/37/37 39/39/39
f 42/42/42 44/44/44 43/43/43
f 46/46/46 45/45/45 47/47/47
f 25/25/25 27/27/27 28/28/28
f 30/30/30 31/31/31 32/32/32
f 34/34/34 35/35/35 36/36/36
f 38/38/38 39/39/39 40/40/40
f 42/42/42 43/43/43 41/41/41
f 46/46/46 47/47/47 48/48/48
o object_3
v 0.19601164758205414 -0.14920184016227722 0.33199948072433472
v 0.19601164758205414 -0.14920184016227722 -0.10477366298437119
v 0.19601164758205414 0.21861216425895691 0.33199948072433472
v 0.19601164758205414 0.21861216425895691 -0.10477366298437119
v 0.19601164758205414 0.21861216425895691 0.33199948072433472
v 0.19601164758205414 0.21861216425895691 -0.10477366298437119
v 0.35260021686553955 0.21861216425895691 0.33199948072433472
v 0.35260021686553955 0.21861216425895691 -0.10477366298437119
v 0.35260021686553955 0.21861216425895691 0.33199948072433472
v 0.35260021686553955 0.21861216425895691 -0.10477366298437119
v 0.35260021686553955 -0.14920184016227722 0.33199948072433472
v 0.35260021686553955 -0.14920184016227722 -0.10477366298437119
v 0.35260021686553955 -0.14920184016227722 0.33199948072433472
v 0.35260021686553955 -0.14920184016227722 -0.10477366298437119
v 0.19601164758205414 -0.14920184016227722 0.33199948072433472
v 0.19601164758205414 -0.14920184016227722 -0.10477366298437119
v 0.19601164758205414 -0.14920184016227722 0.33199948072433472
v 0.19601164758205414 0.21861216425895691 0.33199948072433472
v 0.35260021686553955 0.21861216425895691 0.33199948072433472
v 0.35260021686553955 -0.14920184016227722 0.33199948072433472
v 0.19601164758205414 -0.14920184016227722 -0.10477366298437119
v 0.19601164758205414 0.21861216425895691 -0.10477366298437119
v 0.35260021686553955 0.21861216425895691 -0.10477366298437119
v 0.35260021686553955 -0.14920184016227722 -0.10477366298437119
vt 0 0
vt 0 0.79120075702667236
vt 0.35069811344146729 0
vt 0.35069811344146729 0.79120075702667236
vt 0.35069811344146729 0
vt 0.35069811344146729 0.79120075702667236
vt 0.5 0
vt 0.5 0.79120075702667236
vt 0.5 0
vt 0.5 0.79120075702667236
vt 0.85069811344146729 0
vt 0.85069811344146729 0.79120075702667236
vt 0.85069811344146729 0
vt 0.85069811344146729 0.79120075702667236
vt 1 0
vt 1 0.79120075702667236
vt 0 1
vt 0.35069811344146729 1
vt 0.35069811344146729 0.79120153188705444
vt 0 0.79120153188705444
vt 0.64930188655853271 0.79120153188705444
vt 1 0.79120153188705444
vt 1 1
vt 0.64930188655853271 1
vn -1 0 0
vn -1 0 0
vn -1 0 0
vn -1 0 0
vn 0 1 0
vn 0 1 0
vn 0 1 0
vn 0 1 0
vn 1 0 0
vn 1 0 0
vn 1 0 0
vn 1 0 0
vn 0 -1 0
vn 0 -1 0
vn 0 -1 0
vn 0 -1 0
vn 0 0 1
vn 0 0 1
vn 0 0 1
vn 0 0 1
vn 0 0 -1
vn 0 0 -1
vn 0 0 -1
vn 0 0 -1
f 49/49/49 51/51/51 52/52/52
f 53/53/53 55/55/55 56/56/56
f 57/57/57 59/59/59 60/60/60
f 61/61/61 63/63/63 64/64/64
f 66/66/66 65/65/65 68/68/68
f 68/68/68 67/67/67 66/66/66
f 70/70/70 72/72/72 69/69/69
f 72/72/72 70/70/70 71/71/71
f 49/49/49 52/52/52 50/50/50
f 53/53/53 56/56/56 54/54/54
f 57/57/57 60/60/60 58/58/58
f 61/61/61 64/64/64 62/62/62
o object_4
v 0.018683671951293945 0.37799850106239319 0.13999705016613007
v 0.018683671951293945 0.37799850106239319 -0.10477366298437119
v 0.35260021686553955 0.32909789681434631 0.13999705016613007
v 0.35260021686553955 0.32909789681434631 -0.10477366298437119
v 0.35260021686553955 0.32909789681434631 0.13999705016613007
v 0.35260021686553955 0.32909789681434631 -0.10477366298437119
v 0.35260021686553955 0.21861216425895691 0.13999705016613007
v 0.35260021686553955 0.21861216425895691 -0.10477366298437119
v 0.35260021686553955 0.21861216425895691 0.13999705016613007
v 0.35260021686553955 0.21861216425895691 -0.10477366298437119
v -0.26199287176132202 0.21861216425895691 0.13999705016613007
v -0.26199287176132202 0.21861216425895691 -0.10477366298437119
v -0.26199287176132202 0.21861216425895691 0.13999705016613007
v 0.35260021686553955 0.21861216425895691 0.13999705016613007
v -0.26199287176132202 0.27799850702285767 0.13999705016613007
v 0.35260021686553955 0.32909789681434631 0.13999705016613007
v 0.018683671951293945 0.37799850106239319 0.13999705016613007
v -0.26199287176132202 0.21861216425895691 -0.10477366298437119
v 0.35260021686553955 0.21861216425895691 -0.10477366298437119
v -0.26199287176132202 0.27799850702285767 -0.10477366298437119
v 0.35260021686553955 0.32909789681434631 -0.10477366298437119
v 0.018683671951293945 0.37799850106239319 -0.10477366298437119
v -0.26199287176132202 0.21861216425895691 0.13999705016613007
v -0.26199287176132202 0.21861216425895691 -0.10477366298437119
v -0.26199287176132202 0.27799850702285767 0.13999705016613007
v -0.26199287176132202 0.27799850702285767 -0.10477366298437119
v -0.26199287176132202 0.27799850702285767 -0.10477366298437119
v 0.018683671951293945 0.37799850106239319 -0.10477366298437119
v -0.26199287176132202 0.27799850702285767 0.13999705016613007
v 0.018683671951293945 0.37799850106239319 0.13999705016613007
vt 0.24511982500553131 0
vt 0.24511982500553131 0.2852531373500824
vt 0.64043104648590088 0
vt 0.64043104648590088 0.2852531373500824
vt 0.022708656266331673 0
vt 0.022708656266331673 0.2867179811000824
vt 0.1038089394569397 0
vt 0.1038089394569397 0.2867179811000824
vt 0.24511982500553131 0.71328198909759521
vt 0.24511982500553131 0.99853515625
vt 0.96357321739196777 0.71328198909759521
vt 0.96357321739196777 0.99853515625
vt 0.1052737832069397 0
vt 0.1052737832069397 0.71991819143295288
vt 0.12774457037448883 0
vt 0.18697406351566315 0.71991819143295288
vt 0.24365498125553131 0.32877713441848755
vt 0.96357321739196777 0.57343596220016479
vt 0.24511982500553131 0.57343596220016479
vt 0.96357321739196777 0.59590679407119751
vt 0.24511982500553131 0.65513628721237183
vt 0.63546502590179443 0.71181714534759521
vt 0 0
vt 0 0.2867179811000824
vt 0.021243812516331673 0
vt 0.021243812516331673 0.2867179811000824
vt 0.59414070844650269 0.2867179811000824
vt 0.24511982500553131 0.2867179811000824
vt 0.59414070844650269 0.57197111845016479
vt 0.24511982500553131 0.57197111845016479
vn 0.14490003883838654 0.98944628238677979 0
vn 0.14490003883838654 0.98944628238677979 0
vn 0.14490003883838654 0.98944628238677979 0
vn 0.14490003883838654 0.98944628238677979 0
vn 1 0 0
vn 1 0 0
vn 1 0 0
vn 1 0 0
vn 0 -1 0
vn 0 -1 0
vn 0 -1 0
vn 0 -1 0
vn 0 0 1
vn 0 0 1
vn 0 0 1
vn 0 0 1
vn 0 0 1
vn 0 0 -1
vn 0 0 -1
vn 0 0 -1
vn 0 0 -1
vn 0 0 -1
vn -1 0 0
vn -1 0 0
vn -1 0 0
vn -1 0 0
vn -0.33561709523200989 0.94199848175048828 0
vn -0.33561709523200989 0.94199848175048828 0
vn -0.33561709523200989 0.94199848175048828 0
vn -0.33561709523200989 0.94199848175048828 0
f 74/74/74 73/73/73 75/75/75
f 78/78/78 77/77/77 79/79/79
f 82/82/82 81/81/81 83/83/83
f 87/87/87 85/85/85 86/86/86
f 88/88/88 89/89/89 87/87/87
f 86/86/86 88/88/88 87/87/87
f 92/92/92 91/91/91 90/90/90
f 93/93/93 92/92/92 94/94/94
f 91/91/91 92/92/92 93/93/93
f 96/96/96 95/95/95 97/97/97
f 100/100/100 99/99/99 101/101/101
f 74/74/74 75/75/75 76/76/76
f 78/78/78 79/79/79 80/80/80
f 82/82/82 83/83/83 84/84/84
f 96/96/96 97/97/97 98/98/98
f 100/100/100 101/101/101 102/102/102
o object_5
v -0.19499979913234711 -0.14920184016227722 0.41994926333427429
v -0.19499979913234711 -0.14920184016227722 -0.14273048937320709
v -0.19499979913234711 0.22199851274490356 0.41994926333427429
v -0.19499979913234711 0.22199851274490356 -0.14273048937320709
v -0.19499979913234711 0.22199851274490356 0.41994926333427429
v -0.19499979913234711 0.22199851274490356 -0.14273048937320709
v 0.19601164758205414 0.22199851274490356 0.33199948072433472
v 0.19601164758205414 0.22199851274490356 -0.14273048937320709
v 0.19601164758205414 0.22199851274490356 0.33199948072433472
v 0.19601164758205414 0.22199851274490356 -0.14273048937320709
v 0.19601164758205414 -0.14920184016227722 0.33199948072433472
v 0.19601164758205414 -0.14920184016227722 -0.14273048937320709
v 0.19601164758205414 -0.14920184016227722 0.33199948072433472
v 0.19601164758205414 -0.14920184016227722 -0.14273048937320709
v -0.19499979913234711 -0.14920184016227722 0.41994926333427429
v -0.19499979913234711 -0.14920184016227722 -0.14273048937320709
v -0.19499979913234711 -0.14920184016227722 0.41994926333427429
v -0.19499979913234711 0.22199851274490356 0.41994926333427429
v 0.19601164758205414 0.22199851274490356 0.33199948072433472
v 0.19601164758205414 -0.14920184016227722 0.33199948072433472
v -0.19499979913234711 -0.14920184016227722 -0.14273048937320709
v -0.19499979913234711 0.22199851274490356 -0.14273048937320709
v 0.19601164758205414 0.22199851274490356 -0.14273048937320709
v 0.19601164758205414 -0.14920184016227722 -0.14273048937320709
vt 0 0
vt 0 0.69501966238021851
vt 0.24350211024284363 0
vt 0.24350211024284363 0.69501966238021851
vt 0.24350211024284363 0
vt 0.24350211024284363 0.69501966238021851
vt 0.5 0
vt 0.5 0.69501966238021851
vt 0.5 0
vt 0.5 0.69501966238021851
vt 0.74350208044052124 0
vt 0.74350208044052124 0.69501966238021851
vt 0.74350208044052124 0
vt 0.74350208044052124 0.69501966238021851
vt 1 0
vt 1 0.69501966238021851
vt 0.25649788975715637 1
vt 0.25649788975715637 0.69502031803131104
vt 0 0.69502031803131104
vt 0 1
vt 1 0.69502031803131104
vt 1 1
vt 0.74350208044052124 1
vt 0.74350208044052124 0.69502031803131104
vn -1 0 0
vn -1 0 0
vn -1 0 0
vn -1 0 0
vn 0 1 0
vn 0 1 0
vn 0 1 0
vn 0 1 0
vn 1 0 0
vn 1 0 0
vn 1 0 0
vn 1 0 0
vn 0 -1 0
vn 0 -1 0
vn 0 -1 0
vn 0 -1 0
vn 0.21944618225097656 0 0.97562462091445923
vn 0.21944618225097656 0 0.97562462091445923
vn 0.21944618225097656 0 0.97562462091445923
vn 0.21944618225097656 0 0.97562462091445923
vn 0 0 -1
vn 0 0 -1
vn 0 0 -1
vn 0 0 -1
f 103/103/103 105/105/105 106/106/106
f 107/107/107 109/109/109 110/110/110
f 111/111/111 113/113/113 114/114/114
f 115/115/115 117/117/117 118/118/118
f 120/120/120 119/119/119 122/122/122
f 122/122/122 121/121/121 120/120/120
f 124/124/124 126/126/126 123/123/123
f 126/126/126 124/124/124 125/125/125
f 103/103/103 106/106/106 104/104/104
f 107/107/107 110/110/110 108/108/108
f 111/111/111 114/114/114 112/112/112
f 115/115/115 118/118/118 116/116/116
