# Rhino

o object_1
v -0.098033327766348155 -0.096461925930390505 -0.11798359080161254
v 0.15163520302405509 -0.12309955852436288 0.16090356363581307
v 0.1193749019045946 -0.124999950560665 0.98307905615083302
v -0.066953251605541136 -0.26621026727773656 0.046789282835183535
v -0.11336170827880927 -0.13519373176524963 1.1256622548657242
v 0.059208563255004967 -0.27532800646686451 1.106284656353975
v 0.12930056527829406 -0.23541252058997764 -0.010419137192623334
v -0.11133959654017303 -0.24399466743048207 1.0966354415546258
v -0.15055239265022469 -0.21350618082856332 -0.020275654495651812
v 0.1125621430977959 -0.23169553022463918 1.1366792236111456
v -0.14923470501422514 -0.097972997911886212 0.037742454462944365
v 0.13998089524013266 -0.098993207529020869 -0.068868520998704524
v 0.059070396421598018 -0.25575093473180943 -0.079362108411829654
v 0.039541322824604722 -0.13519373176524963 1.206441471204146
v -0.049059768801702826 -0.27525310825679572 1.1265096178436464
v -0.029233609322306051 -0.20495728971186403 -0.1501123445192328
v 0.15097105004447922 -0.21272830334622644 0.16073220456854465
v 0.076812828628509411 -0.26616184924107156 0.046831580525150289
v -0.1196991719125447 -0.12521829209208468 0.98290025261442782
v 0.037783657100632251 -0.094575439050673837 0.14193351593511983
v -0.029688394238986938 -0.23277279639804485 1.2083633335369983
v -0.067734115848313334 -0.27559333854703183 0.80290451887619108
v 0.068192944755101889 -0.096139295515963716 -0.137210309954448
v -0.098411107160682645 -0.25594860420153248 -0.010449678710967089
v 0.10071986701727169 -0.20286580425026191 -0.12041749672814202
v 0.068289722877839035 -0.27547715818605739 0.80290711345348953
v 0.12307388571619372 -0.2301287843892014 0.99213459691416361
v -0.15119335007288884 -0.21225187026683792 0.11353398442918043
v 0.15146170460210676 -0.20138421089620376 -0.029196250398475978
v 0.11251265169846732 -0.13519373176524963 1.1265768959106903
v -0.12056017479074699 -0.20410325453909159 -0.099738077905676584
v -0.059404647143108856 -0.25567348351798946 -0.079346820823476091
v 0.14813441403601549 -0.096951744126116998 0.0569755303603613
v 0.039758586450960504 -0.23271200011435933 1.2082641600956603
v -0.060481958904085066 -0.13519373176524963 1.1972273670186602
v -0.14087278520969237 -0.10113385566469117 -0.069838896393023445
v -0.092518411376257617 -0.23235643186262647 1.1668162536117426
v -0.12324791656456896 -0.22940069659036696 0.98280308935565064
v -0.089515173041456897 -0.26518633824728427 0.22664582480020404
v 0.11073633434215054 -0.2446490517104998 1.1056211607240316
v -0.029660515626994403 -0.10178125657764282 -0.15123457204735441
v 0.089701843242394746 -0.26506767487112326 0.22666136451837737
v -0.066254813877263743 -0.094577733482686915 0.13255954192036276
v 0.029416921074443672 -0.2029965883728897 -0.1510579185933307
v 0.030123392884681015 -0.27474180014971689 1.1467845775174041
v -0.1516685980510194 -0.12301457232805353 0.1136456767963878
v -0.070238517383556853 -0.2028463111902504 -0.14078341572051381
v 0.14029909574298591 -0.2036350295293069 -0.070243547941170506
v 0.09153249153995445 -0.13519373176524963 1.1671838361729678
v -0.075635397463616388 -0.12294519701992805 0.99226402821775062
v -0.13856330121146118 -0.22612234071271328 -0.020213273302096692
v 0.062443188774774908 -0.23161600013256864 1.1975375808346842
v -0.060823492403341145 -0.27471864854107031 1.10661291053167
v -0.056784326259909729 -0.27572216647097864 0.77431990000007223
v 0.098675821643758516 -0.25580382079500208 -0.010479436373702012
v 0.14867344481785486 -0.09749225957336205 -0.029003388870474607
v 0.12046694224075566 -0.1013988479837365 -0.10055579836729031
v -0.15129243259421996 -0.20130043411755633 -0.040070827898483451
v -0.061327184038509758 -0.23282314959387312 1.1976534651213762
v -0.1020144111700818 -0.13519373176524963 1.1566430524729838
v 0.094542586796939457 -0.12294588960468651 0.99213938054626094
v 0.069770339782726606 -0.20380459584394769 -0.14055428574366757
v 0.13979828215580589 -0.22499201818545586 0.35918151354810751
v -0.11357701124077395 -0.20993531968602283 1.1264965168384304
vn -0.38412469625473022 0.780079185962677 -0.49388733506202698
vn 0.99729472398757935 0.071144945919513702 0.018483057618141174
vn 0.63494771718978882 0.7694125771522522 0.069611057639122009
vn -0.082425162196159363 -0.99562674760818481 -0.043971717357635498
vn -0.93921065330505371 0.30398571491241455 0.15961197018623352
vn 0.25545632839202881 -0.96050065755844116 0.11036563664674759
vn 0.65395653247833252 -0.74915206432342529 -0.10541372001171112
vn -0.74275964498519897 -0.66336673498153687 0.090844154357910156
vn -0.8967975378036499 -0.41959485411643982 -0.14033658802509308
vn 0.86298710107803345 -0.38038817048072815 0.33250284194946289
vn -0.77366667985916138 0.63344132900238037 -0.013853040523827076
vn 0.79971998929977417 0.50300300121307373 -0.3277742862701416
vn 0.241639643907547 -0.8920934796333313 -0.38181084394454956
vn 0.18661853671073914 0.71289771795272827 0.67598104476928711
vn -0.18227687478065491 -0.95301079750061035 0.2419617772102356
vn -0.089579083025455475 -0.5338670015335083 -0.84081012010574341
vn 0.92900502681732178 -0.37003034353256226 0.0052204569801688194
vn 0.12948286533355713 -0.99078494310379028 -0.039741948246955872
vn -0.64670825004577637 0.76027250289916992 0.061271071434020996
vn 0.016871113330125809 0.99980771541595459 0.0099966665729880333
vn -0.1340423971414566 -0.47579154372215271 0.86928421258926392
vn -0.16051158308982849 -0.98703384399414063 -0.0004481123760342598
vn 0.24669541418552399 0.80321788787841797 -0.5422014594078064
vn -0.39591071009635925 -0.91186040639877319 -0.10846786946058273
vn 0.62075215578079224 -0.3146781325340271 -0.71808385848999023
vn 0.22037228941917419 -0.97541582584381104 -0.00018865465244743973
vn 0.97461777925491333 -0.21974180638790131 0.042821712791919708
vn -0.95642036199569702 -0.29186984896659851 0.0084896422922611237
vn 0.98170590400695801 -0.15895542502403259 -0.10481721162796021
vn 0.86284685134887695 0.44074374437332153 0.24746762216091156
vn -0.72493594884872437 -0.42850103974342346 -0.53930950164794922
vn -0.27076470851898193 -0.88434833288192749 -0.38028207421302795
vn 0.67231380939483643 0.74019926786422729 0.0099592404440045357
vn 0.20559856295585632 -0.46329516172409058 0.86202484369277954
vn -0.38167119026184082 0.60728180408477783 0.69680410623550415
vn -0.86230587959289551 0.33084601163864136 -0.38336601853370667
vn -0.74618446826934814 -0.4385320246219635 0.50089764595031738
vn -0.99043077230453491 -0.12829206883907318 0.050872907042503357
vn -0.44951730966567993 -0.89323383569717407 -0.0082175200805068016
vn 0.68393343687057495 -0.72730517387390137 0.057116072624921799
vn -0.13112066686153412 0.2614557147026062 -0.95626789331436157
vn 0.47238433361053467 -0.88136750459671021 -0.006663548294454813
vn -0.033579953014850616 0.99933236837387085 0.014396071434020996
vn 0.12067963927984238 -0.32907563447952271 -0.93656057119369507
vn 0.1820392906665802 -0.90188002586364746 0.39175775647163391
vn -0.99777394533157349 0.065364018082618713 0.013219604268670082
vn -0.42172259092330933 -0.31488907337188721 -0.85029107332229614
vn 0.81443047523498535 -0.39313387870788574 -0.42678886651992798
vn 0.64669263362884521 0.54435253143310547 0.53429299592971802
vn -0.021980863064527512 0.99866735935211182 0.046694792807102203
vn -0.62993013858795166 -0.76403409242630005 -0.13942733407020569
vn 0.57870328426361084 -0.3540242612361908 0.73468995094299316
vn -0.4126492440700531 -0.89956486225128174 0.14319105446338654
vn -0.0087326262146234512 -0.999916672706604 -0.0095100002363324165
vn 0.42378216981887817 -0.89888209104537964 -0.11144363880157471
vn 0.71236830949783325 0.69568842649459839 -0.092461071908473969
vn 0.71800124645233154 0.28095811605453491 -0.63681769371032715
vn -0.96225666999816895 -0.15214121341705322 -0.22564379870891571
vn -0.46652305126190186 -0.48069748282432556 0.74248647689819336
vn -0.74070006608963013 0.51274281740188599 0.43411779403686523
vn 0.051432229578495026 0.99738091230392456 0.050853133201599121
vn 0.37218722701072693 -0.40177705883979797 -0.83669102191925049
vn 0.7577282190322876 -0.65250182151794434 0.0094513548538088799
vn -0.96263539791107178 -0.099464572966098785 0.25187268853187561
f 37//37 60//60 64//64
f 4//4 13//13 18//18
f 1//1 11//11 20//20
f 6//6 15//15 22//22
f 1//1 20//20 23//23
f 6//6 22//22 26//26
f 2//2 3//3 27//27
f 3//3 10//10 27//27
f 17//17 2//2 27//27
f 11//11 9//9 28//28
f 2//2 17//17 29//29
f 17//17 7//7 29//29
f 10//10 3//3 30//30
f 13//13 4//4 32//32
f 16//16 13//13 32//32
f 4//4 24//24 32//32
f 3//3 2//2 33//33
f 20//20 3//3 33//33
f 23//23 20//20 33//33
f 2//2 29//29 33//33
f 14//14 21//21 34//34
f 21//21 14//14 35//35
f 11//11 1//1 36//36
f 1//1 31//31 36//36
f 5//5 19//19 38//38
f 28//28 8//8 38//38
f 19//19 28//28 38//38
f 4//4 22//22 39//39
f 22//22 8//8 39//39
f 24//24 4//4 39//39
f 10//10 6//6 40//40
f 6//6 26//26 40//40
f 27//27 10//10 40//40
f 1//1 23//23 41//41
f 26//26 18//18 42//42
f 7//7 40//40 42//42
f 40//40 26//26 42//42
f 11//11 19//19 43//43
f 20//20 11//11 43//43
f 13//13 16//16 44//44
f 16//16 41//41 44//44
f 41//41 23//23 44//44
f 6//6 10//10 45//45
f 15//15 6//6 45//45
f 21//21 15//15 45//45
f 34//34 21//21 45//45
f 19//19 11//11 46//46
f 11//11 28//28 46//46
f 28//28 19//19 46//46
f 31//31 1//1 47//47
f 32//32 31//31 47//47
f 16//16 32//32 47//47
f 1//1 41//41 47//47
f 41//41 16//16 47//47
f 7//7 13//13 48//48
f 13//13 25//25 48//48
f 12//12 29//29 48//48
f 29//29 7//7 48//48
f 3//3 14//14 49//49
f 30//30 3//3 49//49
f 10//10 30//30 49//49
f 19//19 35//35 50//50
f 35//35 14//14 50//50
f 43//43 19//19 50//50
f 20//20 43//43 50//50
f 28//28 9//9 51//51
f 8//8 28//28 51//51
f 9//9 31//31 51//51
f 32//32 24//24 51//51
f 31//31 32//32 51//51
f 39//39 8//8 51//51
f 24//24 39//39 51//51
f 14//14 34//34 52//52
f 45//45 10//10 52//52
f 34//34 45//45 52//52
f 49//49 14//14 52//52
f 10//10 49//49 52//52
f 8//8 22//22 53//53
f 22//22 15//15 53//53
f 37//37 8//8 53//53
f 15//15 37//37 53//53
f 4//4 18//18 54//54
f 22//22 4//4 54//54
f 18//18 26//26 54//54
f 26//26 22//22 54//54
f 13//13 7//7 55//55
f 18//18 13//13 55//55
f 7//7 42//42 55//55
f 42//42 18//18 55//55
f 12//12 23//23 56//56
f 29//29 12//12 56//56
f 23//23 33//33 56//56
f 33//33 29//29 56//56
f 23//23 12//12 57//57
f 25//25 23//23 57//57
f 12//12 48//48 57//57
f 48//48 25//25 57//57
f 9//9 11//11 58//58
f 31//31 9//9 58//58
f 11//11 36//36 58//58
f 36//36 31//31 58//58
f 15//15 21//21 59//59
f 21//21 35//35 59//59
f 37//37 15//15 59//59
f 35//35 37//37 59//59
f 19//19 5//5 60//60
f 35//35 19//19 60//60
f 37//37 35//35 60//60
f 14//14 3//3 61//61
f 3//3 20//20 61//61
f 50//50 14//14 61//61
f 20//20 50//50 61//61
f 25//25 13//13 62//62
f 23//23 25//25 62//62
f 13//13 44//44 62//62
f 44//44 23//23 62//62
f 7//7 17//17 63//63
f 17//17 27//27 63//63
f 40//40 7//7 63//63
f 27//27 40//40 63//63
f 8//8 37//37 64//64
f 5//5 38//38 64//64
f 38//38 8//8 64//64
f 60//60 5//5 64//64
o object_2
v -0.0500289686024189 -0.35799992084503174 -0.14077743887901306
v -0.053436819463968277 -0.38245362043380737 1.2878216505050659
v 0.049969900399446487 -0.3579917848110199 -0.14125284552574158
v 0.046562053263187408 -0.38244548439979553 1.2873462438583374
v 0.049969900399446487 -0.3579917848110199 -0.14125284552574158
v 0.046562053263187408 -0.38244548439979553 1.2873462438583374
v 0.064997084438800812 -0.23801389336585999 -0.13862697780132294
v 0.058522656559944153 -0.26246783137321472 1.2899867296218872
v 0.064997084438800812 -0.23801389336585999 -0.13862697780132294
v 0.058522656559944153 -0.26246783137321472 1.2899867296218872
v -0.065061986446380615 -0.23802447319030762 -0.13800865411758423
v -0.071536406874656677 -0.26247841119766235 1.2906050682067871
v -0.065061986446380615 -0.23802447319030762 -0.13800865411758423
v -0.071536406874656677 -0.26247841119766235 1.2906050682067871
v -0.0500289686024189 -0.35799992084503174 -0.14077743887901306
v -0.053436819463968277 -0.38245362043380737 1.2878216505050659
v -0.065061986446380615 -0.23802447319030762 -0.13800865411758423
v -0.0500289686024189 -0.35799992084503174 -0.14077743887901306
v 0.049969900399446487 -0.3579917848110199 -0.14125284552574158
v 0.064997084438800812 -0.23801389336585999 -0.13862697780132294
v -0.071536406874656677 -0.26247841119766235 1.2906050682067871
v -0.053436819463968277 -0.38245362043380737 1.2878216505050659
v 0.046562053263187408 -0.38244548439979553 1.2873462438583374
v 0.058522656559944153 -0.26246783137321472 1.2899867296218872
vt 0.99853515625 0.24919332563877106
vt 0.07828957587480545 0.24919332563877106
vt 0.99853515625 0.31370103359222412
vt 0.07828957587480545 0.31370103359222412
vt 0.99853515625 0.44079127907752991
vt 0.07828957587480545 0.44079127907752991
vt 0.99853515625 0.51880931854248047
vt 0.07828957587480545 0.51880931854248047
vt 0.99853515625 0.67251712083816528
vt 0.07828957587480545 0.67251712083816528
vt 0.99853515625 0.7564162015914917
vt 0.07828957587480545 0.7564162015914917
vt 0 0
vt 0 0.92024558782577515
vt 0.07682473212480545 0
vt 0.07682473212480545 0.92024558782577515
vt 0.07828957587480545 0
vt 0.15570357441902161 0.009697609581053257
vt 0.15570516884326935 0.074205316603183746
vt 0.078291669487953186 0.083899073302745819
vt 0.53914463520050049 0
vt 0.61655867099761963 0.011675810441374779
vt 0.61656028032302856 0.076183520257472992
vt 0.53914672136306763 0.083899073302745819
vn 0 -0.99985355138778687 -0.017114749178290367
vn 0 -0.99985355138778687 -0.017114749178290367
vn 0 -0.99985355138778687 -0.017114749178290367
vn 0 -0.99985355138778687 -0.017114749178290367
vn 0.99224668741226196 -0.12428375333547592 0.00023955646611284465
vn 0.99506598711013794 -0.099213287234306335 0.00067541928729042411
vn 0.99223816394805908 -0.12432928383350372 0.0023686117492616177
vn 0.99505764245986938 -0.099259443581104279 0.0028105161618441343
vn 0 0.99985355138778687 0.017114749178290367
vn 0 0.99985355138778687 0.017114749178290367
vn 0 0.99985355138778687 0.017114749178290367
vn 0 0.99985355138778687 0.017114749178290367
vn -0.99223816394805908 -0.12417538464069366 -0.0066223302856087685
vn -0.98881071805953979 -0.14900995790958405 -0.0070318966172635555
vn -0.99224388599395752 -0.12422522902488708 -0.0044933417811989784
vn -0.98881596326828003 -0.14905998110771179 -0.004910267423838377
vn -0.0047546918503940105 0.022476067766547203 -0.99973607063293457
vn -0.0047546918503940105 0.022476067766547203 -0.99973607063293457
vn -0.0047546918503940105 0.022476067766547203 -0.99973607063293457
vn -0.0047546918503940105 0.022476067766547203 -0.99973607063293457
vn 0.0047546918503940105 -0.022476067766547203 0.99973607063293457
vn 0.0047546918503940105 -0.022476067766547203 0.99973607063293457
vn 0.0047546918503940105 -0.022476067766547203 0.99973607063293457
vn 0.0047546918503940105 -0.022476067766547203 0.99973607063293457
f 66/2/66 65/1/65 68/4/68
f 70/6/70 69/5/69 71/7/71
f 74/10/74 73/9/73 75/11/75
f 78/14/78 77/13/77 80/16/80
f 84/20/84 82/18/82 81/17/81
f 82/18/82 84/20/84 83/19/83
f 88/24/88 85/21/85 86/22/86
f 86/22/86 87/23/87 88/24/88
f 65/1/65 67/3/67 68/4/68
f 70/6/70 71/7/71 72/8/72
f 74/10/74 75/11/75 76/12/76
f 77/13/77 79/15/79 80/16/80
